<?xml version="1.0" encoding="UTF-8"?>
<!DOCTYPE svg PUBLIC "-//W3C//DTD SVG 1.1//EN" "http://www.w3.org/Graphics/SVG/1.1/DTD/svg11.dtd">
<svg xmlns="http://www.w3.org/2000/svg" version="1.1" width="32px" height="32px" style="shape-rendering:geometricPrecision; text-rendering:geometricPrecision; image-rendering:optimizeQuality; fill-rule:evenodd; clip-rule:evenodd" xmlns:xlink="http://www.w3.org/1999/xlink">
<g><path style="opacity:0.933" fill="#ffcf6c" d="M 8.5,-0.5 C 8.83333,-0.5 9.16667,-0.5 9.5,-0.5C 10.5,0.833333 11.5,0.833333 12.5,-0.5C 12.8333,-0.5 13.1667,-0.5 13.5,-0.5C 15.1513,0.970083 16.9847,2.30342 19,3.5C 19.6077,5.15448 20.1077,6.82115 20.5,8.5C 19.1667,8.5 17.8333,8.5 16.5,8.5C 11.5,8.5 6.5,8.5 1.5,8.5C 1.89233,6.82115 2.39233,5.15448 3,3.5C 5.01533,2.30342 6.84866,0.970083 8.5,-0.5 Z"/></g>
<g><path style="opacity:0.954" fill="#a4c0e1" d="M -0.5,8.5 C 0.166667,8.5 0.833333,8.5 1.5,8.5C 6.5,8.5 11.5,8.5 16.5,8.5C 15.205,9.48837 13.8717,10.4884 12.5,11.5C 11.5,11.5 10.5,11.5 9.5,11.5C 7.83333,11.5 6.16667,11.5 4.5,11.5C 3.16667,11.5 1.83333,11.5 0.5,11.5C 0.166667,11.5 -0.166667,11.5 -0.5,11.5C -0.5,10.5 -0.5,9.5 -0.5,8.5 Z"/></g>
<g><path style="opacity:1" fill="#336684" d="M 16.5,8.5 C 17.8333,8.5 19.1667,8.5 20.5,8.5C 21.1667,8.5 21.8333,8.5 22.5,8.5C 24.5798,10.5732 26.2464,12.9066 27.5,15.5C 26.1667,15.5 24.8333,15.5 23.5,15.5C 22.9224,19.935 24.5891,21.2683 28.5,19.5C 28.9465,22.0101 28.2798,24.0101 26.5,25.5C 26.8238,22.3198 25.4904,21.1531 22.5,22C 20.8203,24.8108 21.4869,26.6441 24.5,27.5C 23.0867,28.9348 21.42,29.9348 19.5,30.5C 18.5,30.5 17.5,30.5 16.5,30.5C 14.5248,28.863 12.5248,27.1964 10.5,25.5C 9.67577,22.2356 9.34243,18.9023 9.5,15.5C 10.4884,14.205 11.4884,12.8717 12.5,11.5C 13.8717,10.4884 15.205,9.48837 16.5,8.5 Z"/></g>
<g><path style="opacity:0.896" fill="#fe656f" d="M 0.5,11.5 C 1.83333,11.5 3.16667,11.5 4.5,11.5C 5.31275,17.8149 5.97941,24.1482 6.5,30.5C 5.16667,30.5 3.83333,30.5 2.5,30.5C 1.83333,24.1667 1.16667,17.8333 0.5,11.5 Z"/></g>
<g><path style="opacity:1" fill="#e25a63" d="M 9.5,11.5 C 10.5,11.5 11.5,11.5 12.5,11.5C 11.4884,12.8717 10.4884,14.205 9.5,15.5C 9.5,14.1667 9.5,12.8333 9.5,11.5 Z"/></g>
<g><path style="opacity:1" fill="#d5e9f1" d="M 18.5,10.5 C 22.35,10.7007 23.35,12.5341 21.5,16C 17.5369,16.1177 16.5369,14.2843 18.5,10.5 Z"/></g>
<g><path style="opacity:0.997" fill="#1c4e67" d="M 22.5,8.5 C 26.3884,9.72521 29.3884,12.0585 31.5,15.5C 31.5,18.1667 31.5,20.8333 31.5,23.5C 30.0401,25.4628 28.3734,27.2962 26.5,29C 28.1341,29.4935 29.8008,29.6602 31.5,29.5C 31.5,30.1667 31.5,30.8333 31.5,31.5C 27.5,31.5 23.5,31.5 19.5,31.5C 19.5,31.1667 19.5,30.8333 19.5,30.5C 21.42,29.9348 23.0867,28.9348 24.5,27.5C 25.5,27.1667 26.1667,26.5 26.5,25.5C 28.2798,24.0101 28.9465,22.0101 28.5,19.5C 28.7678,17.901 28.4345,16.5676 27.5,15.5C 26.2464,12.9066 24.5798,10.5732 22.5,8.5 Z"/></g>
<g><path style="opacity:1" fill="#d3e8f0" d="M 13.5,14.5 C 18.5053,16.1631 18.6719,18.1631 14,20.5C 10.897,18.888 10.7304,16.888 13.5,14.5 Z"/></g>
<g><path style="opacity:1" fill="#daedf5" d="M 27.5,15.5 C 28.4345,16.5676 28.7678,17.901 28.5,19.5C 24.5891,21.2683 22.9224,19.935 23.5,15.5C 24.8333,15.5 26.1667,15.5 27.5,15.5 Z"/></g>
<g><path style="opacity:1" fill="#eaeef4" d="M 4.5,11.5 C 6.16667,11.5 7.83333,11.5 9.5,11.5C 9.5,12.8333 9.5,14.1667 9.5,15.5C 9.34243,18.9023 9.67577,22.2356 10.5,25.5C 10.5,27.1667 10.5,28.8333 10.5,30.5C 9.16667,30.5 7.83333,30.5 6.5,30.5C 5.97941,24.1482 5.31275,17.8149 4.5,11.5 Z"/></g>
<g><path style="opacity:1" fill="#d8ecf4" d="M 15.5,21.5 C 20.1972,22.8743 20.5305,24.8743 16.5,27.5C 13.025,25.9158 12.6917,23.9158 15.5,21.5 Z"/></g>
<g><path style="opacity:1" fill="#d3e8f0" d="M 26.5,25.5 C 26.1667,26.5 25.5,27.1667 24.5,27.5C 21.4869,26.6441 20.8203,24.8108 22.5,22C 25.4904,21.1531 26.8238,22.3198 26.5,25.5 Z"/></g>
<g><path style="opacity:1" fill="#eb666e" d="M 10.5,25.5 C 12.5248,27.1964 14.5248,28.863 16.5,30.5C 14.5,30.5 12.5,30.5 10.5,30.5C 10.5,28.8333 10.5,27.1667 10.5,25.5 Z"/></g>
</svg>
